<?xml version="1.0" encoding="UTF-8"?>
<svg version="1.1" xmlns="http://www.w3.org/2000/svg" width="30" height="30">
<path d="M0 0 C9.9 0 19.8 0 30 0 C30 9.9 30 19.8 30 30 C20.1 30 10.2 30 0 30 C0 20.1 0 10.2 0 0 Z " fill="#047D7B" transform="translate(0,0)"/>
<path d="M0 0 C4.7334375 -0.1546875 4.7334375 -0.1546875 9.5625 -0.3125 C11.0331189 -0.38078003 11.0331189 -0.38078003 12.53344727 -0.45043945 C19.01957265 -0.55237086 22.13458435 0.69026263 27 5 C28.97148563 7.62864751 29.07152885 8.47545507 28.625 11.75 C28.315625 12.86375 28.315625 12.86375 28 14 C24.63324596 12.87774865 23.35488663 11.5903753 21 9 C20.67 8.34 20.34 7.68 20 7 C19.67 7.66 19.34 8.32 19 9 C17.88625 8.979375 16.7725 8.95875 15.625 8.9375 C12.16784079 8.73619282 12.16784079 8.73619282 10 10 C7.57456264 17.27631209 9.40705498 23.08547996 12 30 C8.04 30 4.08 30 0 30 C0 20.1 0 10.2 0 0 Z " fill="#011F6D" transform="translate(0,0)"/>
<path d="M0 0 C2.62541413 2.20196024 2.9445448 3.61973579 3.4375 7 C3 10 3 10 1.375 12.375 C-1.69477548 14.4753727 -3.34556561 14.53293835 -7 14 C-9.4375 13.0625 -9.4375 13.0625 -11 11 C-11.1825794 7.88473896 -10.94398192 4.978913 -10 2 C-6.29584707 -0.46943529 -4.37855495 -0.46913089 0 0 Z " fill="#0A0E1B" transform="translate(19,8)"/>
<path d="M0 0 C3.3 0 6.6 0 10 0 C10.05418326 2.08304538 10.09287551 4.16649768 10.125 6.25 C10.14820313 7.41015625 10.17140625 8.5703125 10.1953125 9.765625 C10.0103949 12.82786046 9.60823023 14.44202751 8 17 C7.34 17 6.68 17 6 17 C6 17.66 6 18.32 6 19 C5.360625 19.268125 4.72125 19.53625 4.0625 19.8125 C1.66868314 20.88667752 1.66868314 20.88667752 1 24 C0.34 23.67 -0.32 23.34 -1 23 C-1 20 -1 20 1 18 C1.44286767 13.23917255 0.43305609 9.47830028 -1 5 C1.51083114 6.25541557 1.87125446 7.50063488 3 10 C3.33 8.35 3.66 6.7 4 5 C4.33 5 4.66 5 5 5 C5.1953125 7.05078125 5.390625 9.1015625 5.5859375 11.15234375 C5.72257812 11.76207031 5.85921875 12.37179687 6 13 C6.66 13.33 7.32 13.66 8 14 C7.74473736 9.66053508 7.45510245 7.52511821 4.5625 4.1875 C3.716875 3.465625 2.87125 2.74375 2 2 C1.34 1.34 0.68 0.68 0 0 Z " fill="#0F505B" transform="translate(20,0)"/>
<path d="M0 0 C4.92336402 0.80564139 8.14249487 3.50770149 11.078125 7.421875 C11.72613108 10.01389933 11.28588111 11.87395299 10.578125 14.421875 C6.14204348 12.94318116 4.13423065 10.25603348 1.578125 6.421875 C0.588125 6.091875 -0.401875 5.761875 -1.421875 5.421875 C-1.421875 5.091875 -1.421875 4.761875 -1.421875 4.421875 C-2.411875 4.751875 -3.401875 5.081875 -4.421875 5.421875 C-7.609375 4.484375 -7.609375 4.484375 -10.421875 3.421875 C-7.34114364 -0.33901783 -4.63244566 -0.13545163 0 0 Z " fill="#027790" transform="translate(17.421875,-0.421875)"/>
<path d="M0 0 C2.1519437 3.22791555 2.20086443 4.28400809 2 8 C2.66 6.68 3.32 5.36 4 4 C4.28875 5.03125 4.5775 6.0625 4.875 7.125 C5.82308798 10.45007997 6.88256594 13.72751453 8 17 C3.55823625 15.64279441 1.38663559 14.00613831 -1 10 C-1.60291054 7.00554433 -1.86714377 4.04905053 -2 1 C-1.34 0.67 -0.68 0.34 0 0 Z " fill="#012894" transform="translate(2,12)"/>
<path d="M0 0 C0.804375 0.4640625 0.804375 0.4640625 1.625 0.9375 C4.3984957 2.17827439 7.00042837 2.5909675 10 3 C9.01 3.66 8.02 4.32 7 5 C7.99 5.99 8.98 6.98 10 8 C6.25 11 6.25 11 4 11 C1.38411497 7.44239635 0.50642192 4.35522853 0 0 Z " fill="#023E72" transform="translate(8,19)"/>
<path d="M0 0 C0.33 0 0.66 0 1 0 C1 3.96 1 7.92 1 12 C-2.96 12 -6.92 12 -11 12 C-9.68 11.34 -8.36 10.68 -7 10 C-3.51628828 6.93101587 -1.39848338 4.44971985 0 0 Z " fill="#151B26" transform="translate(29,18)"/>
<path d="M0 0 C0.66 1.32 1.32 2.64 2 4 C3.62449243 5.70779973 5.29220027 7.37550757 7 9 C7.99 9.99 8.98 10.98 10 12 C6.7 12 3.4 12 0 12 C0 8.04 0 4.08 0 0 Z " fill="#0A0F1E" transform="translate(0,18)"/>
<path d="M0 0 C3.3 0 6.6 0 10 0 C9.2575 0.53625 8.515 1.0725 7.75 1.625 C4.82649095 4.14984872 3.06298806 6.75816162 1 10 C0.67 10 0.34 10 0 10 C0 6.7 0 3.4 0 0 Z " fill="#0A0E1C" transform="translate(0,0)"/>
<path d="M0 0 C0.66 0.66 1.32 1.32 2 2 C1.01 2.495 1.01 2.495 0 3 C0.99 3.66 1.98 4.32 3 5 C2.67 5.66 2.34 6.32 2 7 C1.67 6.67 1.34 6.34 1 6 C-0.68183948 5.76712992 -2.3712416 5.58735834 -4.0625 5.4375 C-4.98160156 5.35371094 -5.90070312 5.26992187 -6.84765625 5.18359375 C-7.91306641 5.09271484 -7.91306641 5.09271484 -9 5 C-9.33 3.68 -9.66 2.36 -10 1 C-7.98177083 1.32552083 -5.96354167 1.65104167 -3.9453125 1.9765625 C-2.98238281 1.98816406 -2.98238281 1.98816406 -2 2 C-1.34 1.34 -0.68 0.68 0 0 Z " fill="#034781" transform="translate(17,2)"/>
<path d="M0 0 C2.97 0 5.94 0 9 0 C9 2.64 9 5.28 9 8 C7.87411986 7.04270084 6.7493285 6.08412105 5.625 5.125 C4.99851562 4.59132813 4.37203125 4.05765625 3.7265625 3.5078125 C2.44163349 2.38567993 1.20628025 1.20628025 0 0 Z " fill="#0B0F1B" transform="translate(20,0)"/>
<path d="M0 0 C1 2 1 2 0.875 5.5625 C0.78573772 10.42729426 2.25388226 14.50998296 4 19 C3.34 19 2.68 19 2 19 C-0.66038099 13.4373852 -1.96232949 8.06732052 -3 2 C-2.01 1.34 -1.02 0.68 0 0 Z " fill="#03205D" transform="translate(8,11)"/>
<path d="M0 0 C2.78637633 4.1795645 1.79562512 6.14668677 1 11 C0.34 10.67 -0.32 10.34 -1 10 C-1.4140625 7.93359375 -1.4140625 7.93359375 -1.625 5.4375 C-1.69976562 4.61121094 -1.77453125 3.78492188 -1.8515625 2.93359375 C-1.90054688 2.29550781 -1.94953125 1.65742188 -2 1 C-1.34 0.67 -0.68 0.34 0 0 Z " fill="#012EBD" transform="translate(2,12)"/>
<path d="M0 0 C0.33 0.66 0.66 1.32 1 2 C1.66 2.33 2.32 2.66 3 3 C0.9632277 6.05515845 0.19413427 6.60256625 -3 8 C-3.99 8.495 -3.99 8.495 -5 9 C-4.5206753 4.68607774 -3.2542015 2.83430453 0 0 Z " fill="#0029A0" transform="translate(6,2)"/>
<path d="M0 0 C0 1.65 0 3.3 0 5 C-3.33537489 3.88820837 -4.63707344 2.52588702 -7 0 C-2.25 -1.125 -2.25 -1.125 0 0 Z " fill="#03687A" transform="translate(20,23)"/>
<path d="M0 0 C0.66 1.65 1.32 3.3 2 5 C-0.64 4.34 -3.28 3.68 -6 3 C-3.375 0 -3.375 0 0 0 Z " fill="#015BB1" transform="translate(13,0)"/>
<path d="M0 0 C2.31 0 4.62 0 7 0 C7.33 0.66 7.66 1.32 8 2 C5.69 2.66 3.38 3.32 1 4 C0.67 2.68 0.34 1.36 0 0 Z " fill="#0284AB" transform="translate(13,0)"/>
<path d="M0 0 C1.5625 1.1875 1.5625 1.1875 3 3 C2.6875 5.6875 2.6875 5.6875 2 8 C1.01 7.67 0.02 7.34 -1 7 C-0.67 4.69 -0.34 2.38 0 0 Z " fill="#059E97" transform="translate(26,6)"/>
<path d="M0 0 C0.33 0.66 0.66 1.32 1 2 C0.360625 2.268125 -0.27875 2.53625 -0.9375 2.8125 C-3.33131686 3.88667752 -3.33131686 3.88667752 -4 7 C-4.66 6.67 -5.32 6.34 -6 6 C-6 5.01 -6 4.02 -6 3 C-4 2 -2 1 0 0 Z " fill="#054650" transform="translate(25,17)"/>
<path d="M0 0 C0.33 0 0.66 0 1 0 C0.67 2.31 0.34 4.62 0 7 C-1.32 6.67 -2.64 6.34 -4 6 C-3.67 5.34 -3.34 4.68 -3 4 C-2.34 4 -1.68 4 -1 4 C-0.67 2.68 -0.34 1.36 0 0 Z " fill="#0E6B73" transform="translate(29,13)"/>
</svg>
